<?xml version="1.0" encoding="utf-8"?>
<!-- Generator: Adobe Illustrator 23.0.5, SVG Export Plug-In . SVG Version: 6.00 Build 0)  -->
<svg version="1.1" id="Capa_1" xmlns="http://www.w3.org/2000/svg" xmlns:xlink="http://www.w3.org/1999/xlink" x="0px" y="0px"
	 viewBox="0 0 96.1 28.9" style="enable-background:new 0 0 96.1 28.9;" xml:space="preserve">
<style type="text/css">
	.st0{fill:#030608;}
	.st1{fill:#66AD8D;}
	.st2{fill:#FFFFFF;}
</style>
<g>
	<path id="XMLID_10_" class="st2" d="M11.2,28.6c-2,0-3.9-0.4-5.7-1.2c-1.8-0.8-3.4-1.8-4.8-3.2l0,0C0.1,23.7,0,23.1,0,22.7
		c0-0.5,0.2-1.1,0.6-1.5c0.4-0.5,1-0.7,1.6-0.7c0.4,0,0.9,0.1,1.4,0.6c1.2,1,2.4,1.8,3.7,2.4c1.2,0.6,2.5,0.8,4,0.8
		c0.7,0,1.5-0.1,2.2-0.3c0.7-0.2,1.3-0.5,1.9-0.9c0.5-0.4,0.9-0.8,1.2-1.3c0.3-0.5,0.4-1.1,0.4-1.7c0-0.5-0.1-0.8-0.3-1.2
		c-0.3-0.4-0.6-0.7-1-1c-0.5-0.3-1.1-0.6-1.7-0.8c-0.7-0.3-1.5-0.5-2.2-0.7c-0.8-0.2-1.5-0.4-2.3-0.5c-0.8-0.2-1.5-0.3-2.1-0.5
		c-0.8-0.2-1.6-0.5-2.3-0.9c-0.8-0.4-1.5-0.9-2.1-1.5c-0.6-0.6-1.1-1.4-1.5-2.2C1,10,0.8,9,0.8,8c0-1.4,0.3-2.6,1-3.7
		c0.6-1,1.4-1.8,2.4-2.5c0.9-0.6,2-1.1,3.1-1.4C8.4,0.2,9.5,0,10.6,0c0.7,0,1.4,0.1,2.3,0.2c0.8,0.1,1.7,0.3,2.5,0.6
		c0.8,0.3,1.6,0.6,2.4,1c0.8,0.4,1.5,0.9,2,1.4l0,0c0.1,0.1,0.2,0.2,0.3,0.3c0.3,0.3,0.4,0.8,0.4,1.2c0,0.6-0.2,1.1-0.6,1.5
		c-0.4,0.4-1,0.6-1.5,0.6c-0.4,0-0.8-0.2-1-0.3c-0.2-0.1-0.3-0.2-0.5-0.3c-0.1-0.1-0.2-0.2-0.3-0.2C16.3,6,16.2,6,16.1,5.9
		c-0.8-0.5-1.7-0.9-2.6-1.2c-1.5-0.5-3.1-0.6-4.9-0.2C7.9,4.7,7.3,5,6.7,5.3C6.2,5.6,5.8,6,5.5,6.4C5.3,6.8,5.1,7.3,5.1,7.9
		c0,0.6,0.1,1.2,0.4,1.5c0.3,0.4,0.7,0.8,1.3,1.1c0.6,0.3,1.4,0.6,2.2,0.8c0.9,0.2,1.9,0.5,2.9,0.7c1,0.2,2.1,0.5,3.1,0.8
		c1.1,0.3,2.1,0.8,3,1.3c1,0.6,1.8,1.4,2.3,2.3c0.6,1,1,2.2,1,3.7c0,1.4-0.3,2.7-1,3.8c-0.6,1.1-1.4,2-2.4,2.7c-1,0.7-2,1.2-3.2,1.5
		C13.5,28.4,12.4,28.6,11.2,28.6"/>
	<path id="XMLID_9_" class="st2" d="M32.3,0.1c0.7,0.1,1.3,0.6,1.6,1.4C34,1.6,34.1,2,34.5,2.9c0.3,0.8,0.7,1.8,1.2,3
		c0.5,1.2,1,2.5,1.6,3.9c0.6,1.4,1.2,2.9,1.7,4.3c0.6,1.5,1.1,2.9,1.7,4.3c0.5,1.4,1,2.6,1.5,3.7c0.4,1.1,0.8,2,1,2.6
		c0.5,1.3,0.5,1.3,0.5,1.6c0,0.6-0.2,1.1-0.6,1.5c-0.4,0.4-0.9,0.6-1.5,0.6c-1,0-1.7-0.6-2-1.4L31.9,8.1l0,0l-7.3,19.1
		c-0.3,0.9-1.1,1.4-2,1.4c-0.1,0-0.2,0-0.4,0h0l-0.2-0.1c-0.9-0.3-1.5-1.1-1.5-2.1c0-0.3,0-0.4,0.5-1.6c0.3-0.7,0.6-1.6,1-2.6
		c0.4-1.1,0.9-2.3,1.4-3.7c0.5-1.4,1.1-2.8,1.6-4.3c0.6-1.5,1.1-2.9,1.7-4.3c0.6-1.4,1.1-2.7,1.5-3.9c0.5-1.2,0.8-2.2,1.2-3
		c0.3-0.8,0.5-1.3,0.6-1.5l0-0.1c0.3-0.7,0.8-1.1,1.5-1.2L32.3,0.1z"/>
	<path id="XMLID_8_" class="st2" d="M84.7,0.3c0.7,0.1,1.3,0.6,1.6,1.4c0.1,0.2,0.2,0.5,0.6,1.5c0.3,0.8,0.7,1.8,1.2,3
		c0.5,1.2,1,2.5,1.6,3.9c0.6,1.4,1.2,2.9,1.7,4.3c0.6,1.5,1.1,2.9,1.7,4.3c0.5,1.4,1,2.6,1.5,3.7c0.4,1.1,0.8,2,1,2.6
		c0.5,1.3,0.5,1.3,0.5,1.6c0,0.6-0.2,1.1-0.6,1.5c-0.4,0.4-0.9,0.6-1.5,0.6c-1,0-1.7-0.6-2-1.4L84.3,8.3l0,0l-7.3,19.1
		c-0.3,0.9-1.1,1.4-2,1.4c-0.1,0-0.2,0-0.4,0h0l-0.2-0.1c-0.9-0.3-1.5-1.1-1.5-2.1c0-0.3,0-0.4,0.5-1.6c0.3-0.7,0.6-1.6,1-2.6
		c0.4-1.1,0.9-2.3,1.4-3.7c0.5-1.4,1.1-2.8,1.6-4.3c0.6-1.5,1.1-2.9,1.7-4.3c0.6-1.4,1.1-2.7,1.5-3.9C81,5,81.3,4,81.7,3.2
		c0.3-0.8,0.5-1.3,0.6-1.5l0-0.1c0.3-0.7,0.8-1.1,1.5-1.2L84.7,0.3z"/>
	<path id="XMLID_4_" class="st2" d="M55.2,28.8h-7c-0.8,0-1.4-0.4-1.8-1c-0.2-0.4-0.3-0.8-0.3-1.3V2.4c0-1.2,0.9-2.1,2.2-2.1h6.4
		c1.1,0,2.1,0.2,3,0.6c0.9,0.4,1.8,1,2.5,1.7c0.7,0.7,1.2,1.5,1.6,2.4c0.4,0.9,0.6,2,0.6,3c0,1.5-0.4,2.8-1.1,4.1
		c-0.2,0.4-0.5,0.8-0.8,1.1c0.7,0.5,1.3,1.1,1.8,1.8c0.5,0.7,0.9,1.5,1.2,2.4c0.3,0.9,0.5,1.8,0.5,2.7c0,1.2-0.2,2.3-0.7,3.4
		c-0.5,1-1.1,2-1.8,2.7c-0.8,0.8-1.7,1.4-2.7,1.9C57.5,28.6,56.4,28.8,55.2,28.8 M50.3,24.5h4.9c0.6,0,1.2-0.1,1.7-0.3
		c0.5-0.2,1-0.5,1.4-0.9c0.4-0.4,0.7-0.9,0.9-1.4c0.2-0.5,0.3-1.1,0.3-1.7c0-0.6-0.1-1.1-0.3-1.7c-0.2-0.5-0.5-1-0.9-1.4
		c-0.4-0.4-0.9-0.7-1.4-0.9c-0.5-0.2-1.1-0.3-1.7-0.3c-0.1,0-0.3,0-0.4,0h-4.5V24.5z M50.3,11.5h4.3c0.5,0,0.9-0.1,1.3-0.3
		c0.4-0.2,0.8-0.4,1.1-0.7c0.3-0.3,0.6-0.7,0.8-1.1C58,8.9,58.1,8.5,58.1,8c0-0.5-0.1-0.9-0.3-1.3c-0.2-0.4-0.4-0.8-0.8-1.1
		c-0.3-0.3-0.7-0.6-1.1-0.8c-0.4-0.2-0.8-0.3-1.3-0.3h-4.3V11.5z"/>
	<path id="XMLID_3_" class="st2" d="M68.6,28.9c-0.6,0-1.1-0.2-1.5-0.6s-0.6-0.9-0.6-1.5V2.4c0-0.6,0.2-1.1,0.6-1.5
		c0.4-0.4,0.9-0.6,1.5-0.6c0.5,0,1,0.2,1.4,0.5c0.5,0.4,0.8,1,0.8,1.7v24.3c0,0.7-0.3,1.3-0.8,1.7C69.6,28.7,69.1,28.9,68.6,28.9"/>
	<path id="XMLID_2_" class="st1" d="M26.2,22.4c0.9,1,4.3,2,6,2c3.4,0.1,6.4-0.7,9.1-2.8c2.5-1.9,4.2-4.4,5.5-7.3c0,0,0-0.1,0-0.2
		c-0.1,0-0.1,0-0.1,0c-1.5-0.4-3-0.7-4.5-0.8c-3-0.3-5.9,0.1-8.6,1.5C31,16,29,17.9,27.4,20.3c-0.2,0.3-0.4,0.6-0.5,0.8
		c0.3-0.1,0.6-0.3,0.9-0.4c2.8-1.5,5.3-2.9,8.4-4.1c1.4-0.6,3.4-1.2,5.1-1.4c0.7,0,1.7-0.2,3.2-0.2C36.3,16.5,37.1,17.2,26.2,22.4"
		/>
	<path id="XMLID_1_" class="st2" d="M24.4,22.5c0.1,0,0.9,0.1,1.6-0.1c10.9-5.2,10.1-5.9,18.2-7.3c-1.4,0-2.4,0.2-3.2,0.2
		c-1.7,0.2-3.7,0.8-5.1,1.4c-3.1,1.2-5.6,2.6-8.4,4.1c-0.3,0.1-0.6,0.3-0.9,0.4L25,21.5"/>
</g>
</svg>
