<?xml version="1.0" encoding="utf-8"?>
<!-- Generator: Adobe Illustrator 23.0.5, SVG Export Plug-In . SVG Version: 6.00 Build 0)  -->
<svg version="1.1" id="Capa_1" xmlns="http://www.w3.org/2000/svg" xmlns:xlink="http://www.w3.org/1999/xlink" x="0px" y="0px"
	 viewBox="0 0 50.3 68" style="enable-background:new 0 0 50.3 68;" xml:space="preserve">
<style type="text/css">
	.st0{fill:#030608;}
	.st1{fill:#66AD8D;}
	.st2{fill:#FFFFFF;}
</style>
<g>
	<path id="XMLID_72_" class="st2" d="M11.2,28.6c-2,0-3.9-0.4-5.7-1.2c-1.8-0.8-3.4-1.8-4.8-3.2l0,0C0.1,23.7,0,23.1,0,22.7
		c0-0.5,0.2-1.1,0.6-1.5c0.4-0.5,1-0.7,1.6-0.7c0.4,0,0.9,0.1,1.4,0.6c1.2,1,2.4,1.8,3.7,2.4c1.2,0.6,2.5,0.8,4,0.8
		c0.7,0,1.5-0.1,2.2-0.3c0.7-0.2,1.3-0.5,1.9-0.9c0.5-0.4,0.9-0.8,1.2-1.3c0.3-0.5,0.4-1.1,0.4-1.7c0-0.5-0.1-0.8-0.3-1.2
		c-0.3-0.4-0.6-0.7-1-1c-0.5-0.3-1.1-0.6-1.7-0.8c-0.7-0.3-1.5-0.5-2.2-0.7c-0.8-0.2-1.5-0.4-2.3-0.5c-0.8-0.2-1.5-0.3-2.1-0.5
		c-0.8-0.2-1.6-0.5-2.3-0.9c-0.8-0.4-1.5-0.9-2.1-1.5c-0.6-0.6-1.1-1.4-1.5-2.2C1,10,0.8,9,0.8,8c0-1.4,0.3-2.6,1-3.7
		c0.6-1,1.4-1.8,2.4-2.5c0.9-0.6,2-1.1,3.1-1.4C8.4,0.2,9.5,0,10.6,0c0.7,0,1.4,0.1,2.3,0.2c0.8,0.1,1.7,0.3,2.5,0.6
		c0.8,0.3,1.6,0.6,2.4,1c0.8,0.4,1.5,0.9,2,1.4l0,0c0.1,0.1,0.2,0.2,0.3,0.3c0.3,0.3,0.4,0.8,0.4,1.2c0,0.6-0.2,1.1-0.6,1.5
		c-0.4,0.4-1,0.6-1.5,0.6c-0.4,0-0.8-0.2-1-0.3c-0.2-0.1-0.3-0.2-0.5-0.3c-0.1-0.1-0.2-0.2-0.3-0.2C16.3,6,16.2,6,16.1,5.9
		c-0.8-0.5-1.7-0.9-2.6-1.2c-1.5-0.5-3.1-0.6-4.9-0.2C7.9,4.7,7.3,5,6.7,5.3C6.2,5.6,5.8,6,5.5,6.4C5.3,6.8,5.1,7.3,5.1,7.9
		c0,0.6,0.1,1.2,0.4,1.5c0.3,0.4,0.7,0.8,1.3,1.1c0.6,0.3,1.4,0.6,2.2,0.8c0.9,0.2,1.9,0.5,2.9,0.7c1,0.2,2.1,0.5,3.1,0.8
		c1.1,0.3,2.1,0.8,3,1.3c1,0.6,1.8,1.4,2.3,2.3c0.6,1,1,2.2,1,3.7c0,1.4-0.3,2.7-1,3.8c-0.6,1.1-1.4,2-2.4,2.7c-1,0.7-2,1.2-3.2,1.5
		C13.5,28.4,12.4,28.6,11.2,28.6"/>
	<path id="XMLID_71_" class="st2" d="M32.3,0.1c0.7,0.1,1.3,0.6,1.6,1.4C34,1.6,34.1,2,34.5,2.9c0.3,0.8,0.7,1.8,1.2,3
		c0.5,1.2,1,2.5,1.6,3.9c0.6,1.4,1.2,2.9,1.7,4.3c0.6,1.5,1.1,2.9,1.7,4.3c0.5,1.4,1,2.6,1.5,3.7c0.4,1.1,0.8,2,1,2.6
		c0.5,1.3,0.5,1.3,0.5,1.6c0,0.6-0.2,1.1-0.6,1.5c-0.4,0.4-0.9,0.6-1.5,0.6c-1,0-1.7-0.6-2-1.4L31.9,8.1l0,0l-7.3,19.1
		c-0.3,0.9-1.1,1.4-2,1.4c-0.1,0-0.2,0-0.4,0h0l-0.2-0.1c-0.9-0.3-1.5-1.1-1.5-2.1c0-0.3,0-0.4,0.5-1.6c0.3-0.7,0.6-1.6,1-2.6
		c0.4-1.1,0.9-2.3,1.4-3.7c0.5-1.4,1.1-2.8,1.6-4.3c0.6-1.5,1.1-2.9,1.7-4.3c0.6-1.4,1.1-2.7,1.5-3.9c0.5-1.2,0.8-2.2,1.2-3
		c0.3-0.8,0.5-1.3,0.6-1.5l0-0.1c0.3-0.7,0.8-1.1,1.5-1.2L32.3,0.1z"/>
	<path id="XMLID_70_" class="st2" d="M38.7,30.3c0.7,0.1,1.3,0.6,1.6,1.4c0.1,0.2,0.2,0.5,0.6,1.5c0.3,0.8,0.7,1.8,1.2,3
		c0.5,1.2,1,2.5,1.6,3.9c0.6,1.4,1.2,2.9,1.7,4.3c0.6,1.5,1.1,2.9,1.7,4.3c0.5,1.4,1,2.6,1.5,3.7c0.4,1.1,0.8,2,1,2.6
		c0.5,1.3,0.5,1.3,0.5,1.6c0,0.6-0.2,1.1-0.6,1.5c-0.4,0.4-0.9,0.6-1.5,0.6c-1,0-1.7-0.6-2-1.4l-7.6-19.1l0,0l-7.3,19.1
		c-0.3,0.9-1.1,1.4-2,1.4c-0.1,0-0.2,0-0.4,0h0l-0.2-0.1c-0.9-0.3-1.5-1.1-1.5-2.1c0-0.3,0-0.4,0.5-1.6c0.3-0.7,0.6-1.6,1-2.6
		c0.4-1.1,0.9-2.3,1.4-3.7c0.5-1.4,1.1-2.8,1.6-4.3c0.6-1.5,1.1-2.9,1.7-4.3c0.6-1.4,1.1-2.7,1.5-3.9c0.5-1.2,0.8-2.2,1.2-3
		c0.3-0.8,0.5-1.3,0.6-1.5l0-0.1c0.3-0.7,0.8-1.1,1.5-1.2L38.7,30.3z"/>
	<path id="XMLID_66_" class="st2" d="M9.2,58.8h-7c-0.8,0-1.4-0.4-1.8-1c-0.2-0.4-0.3-0.8-0.3-1.3V32.4c0-1.2,0.9-2.1,2.2-2.1h6.4
		c1.1,0,2.1,0.2,3,0.6c0.9,0.4,1.8,1,2.5,1.7c0.7,0.7,1.2,1.5,1.6,2.4c0.4,0.9,0.6,2,0.6,3c0,1.5-0.4,2.8-1.1,4.1
		c-0.2,0.4-0.5,0.8-0.8,1.1c0.7,0.5,1.3,1.1,1.8,1.8c0.5,0.7,0.9,1.5,1.2,2.4c0.3,0.9,0.5,1.8,0.5,2.7c0,1.2-0.2,2.3-0.7,3.4
		c-0.5,1-1.1,2-1.8,2.7c-0.8,0.8-1.7,1.4-2.7,1.9C11.5,58.6,10.4,58.8,9.2,58.8 M4.3,54.5h4.9c0.6,0,1.2-0.1,1.7-0.3
		c0.5-0.2,1-0.5,1.4-0.9c0.4-0.4,0.7-0.9,0.9-1.4c0.2-0.5,0.3-1.1,0.3-1.7c0-0.6-0.1-1.1-0.3-1.7c-0.2-0.5-0.5-1-0.9-1.4
		c-0.4-0.4-0.9-0.7-1.4-0.9c-0.5-0.2-1.1-0.3-1.7-0.3c-0.1,0-0.3,0-0.4,0H4.3V54.5z M4.3,41.5h4.3c0.5,0,0.9-0.1,1.3-0.3
		c0.4-0.2,0.8-0.4,1.1-0.7c0.3-0.3,0.6-0.7,0.8-1.1c0.2-0.4,0.3-0.8,0.3-1.3c0-0.5-0.1-0.9-0.3-1.3c-0.2-0.4-0.4-0.8-0.8-1.1
		c-0.3-0.3-0.7-0.6-1.1-0.8c-0.4-0.2-0.8-0.3-1.3-0.3H4.3V41.5z"/>
	<path id="XMLID_65_" class="st2" d="M22.6,58.9c-0.6,0-1.1-0.2-1.5-0.6c-0.4-0.4-0.6-0.9-0.6-1.5V32.4c0-0.6,0.2-1.1,0.6-1.5
		c0.4-0.4,0.9-0.6,1.5-0.6c0.5,0,1,0.2,1.4,0.5c0.5,0.4,0.8,1,0.8,1.7v24.3c0,0.7-0.3,1.3-0.8,1.7C23.6,58.7,23.1,58.9,22.6,58.9"/>
	<path id="XMLID_64_" class="st1" d="M26.2,22.4c0.9,1,4.3,2,6,2c3.4,0.1,6.4-0.7,9.1-2.8c2.5-1.9,4.2-4.4,5.5-7.3c0,0,0-0.1,0-0.2
		c-0.1,0-0.1,0-0.1,0c-1.5-0.4-3-0.7-4.5-0.8c-3-0.3-5.9,0.1-8.6,1.5C31,16,29,17.9,27.4,20.3c-0.2,0.3-0.4,0.6-0.5,0.8
		c0.3-0.1,0.6-0.3,0.9-0.4c2.8-1.5,5.3-2.9,8.4-4.1c1.4-0.6,3.4-1.2,5.1-1.4c0.7,0,1.7-0.2,3.2-0.2C36.3,16.5,37.1,17.2,26.2,22.4"
		/>
	<path id="XMLID_63_" class="st2" d="M24.4,22.5c0.1,0,0.9,0.1,1.6-0.1c10.9-5.2,10.1-5.9,18.2-7.3c-1.4,0-2.4,0.2-3.2,0.2
		c-1.7,0.2-3.7,0.8-5.1,1.4c-3.1,1.2-5.6,2.6-8.4,4.1c-0.3,0.1-0.6,0.3-0.9,0.4L25,21.5"/>
	<path class="st2" d="M48.3,68H2.1c-1.1,0-2-0.9-2-2v-3.4c0-1.1,0.9-2,2-2h46.2c1.1,0,2,0.9,2,2v3.4C50.3,67.1,49.4,68,48.3,68
		 M5.3,65.4c-0.3,0.3-0.8,0.5-1.2,0.5c-1.2,0-1.6-0.8-1.6-1.6c0-0.8,0.5-1.7,1.6-1.7c0.4,0,0.8,0.1,1.2,0.5l0.6-0.6
		c-0.5-0.5-1.1-0.7-1.8-0.7c-1.7,0-2.5,1.3-2.5,2.5c0,1.2,0.8,2.5,2.5,2.5c0.7,0,1.3-0.2,1.8-0.7L5.3,65.4z M9.7,61.9v2.7
		c0,0.8-0.4,1.3-1.2,1.3c-0.7,0-1.2-0.5-1.2-1.3v-2.7H6.4v2.7c0,1.4,1,2.1,2.1,2.1c1.2,0,2.1-0.7,2.1-2.1v-2.7H9.7z M11.5,61.8v4.8
		h3.4v-0.8h-2.5v-4H11.5z M16,66.6h0.9v-4h1.5v-0.8h-3.9v0.8H16V66.6z M22.4,61.9v2.7c0,0.8-0.4,1.3-1.2,1.3c-0.7,0-1.2-0.5-1.2-1.3
		v-2.7h-0.9v2.7c0,1.4,1,2.1,2.1,2.1c1.2,0,2.1-0.7,2.1-2.1v-2.7H22.4z M28.4,66.6L27,64.9c0.9-0.2,1.2-0.8,1.2-1.5
		c0-0.8-0.6-1.6-1.7-1.6c-0.8,0-1.5,0-2.3,0v4.8h0.9V65H26l1.4,1.6L28.4,66.6L28.4,66.6z M26.5,62.7c0.6,0,0.8,0.4,0.8,0.8
		s-0.2,0.8-0.8,0.8h-1.4v-1.5H26.5z M32.6,66.6h1l-2.1-4.8h-1l-2.1,4.8h1l0.4-0.9h2.5L32.6,66.6z M31.8,64.9h-1.8l0.9-2L31.8,64.9z
		 M38.9,65.7h-2.7v-1.1h2.6v-0.8h-2.6v-1.1h2.7v-0.9h-3.6v4.8h3.6V65.7z M43.2,65.4c-0.3,0.3-0.8,0.5-1.2,0.5
		c-1.2,0-1.6-0.8-1.6-1.6c0-0.8,0.5-1.7,1.6-1.7c0.4,0,0.8,0.1,1.2,0.5l0.6-0.6c-0.5-0.5-1.1-0.7-1.8-0.7c-1.7,0-2.5,1.3-2.5,2.5
		c0,1.2,0.8,2.5,2.5,2.5c0.7,0,1.3-0.2,1.8-0.7L43.2,65.4z M49,64.3c0-1.3-0.8-2.5-2.5-2.5c-1.7,0-2.5,1.3-2.5,2.5s0.8,2.5,2.5,2.5
		C48.3,66.7,49,65.5,49,64.3 M45,64.3c0-0.8,0.4-1.7,1.6-1.7c1.1,0,1.6,0.9,1.6,1.7c0,0.8-0.4,1.6-1.6,1.6
		C45.5,65.9,45,65.1,45,64.3"/>
</g>
</svg>
